<svg width="275" height="38" viewBox="0 0 275 38" fill="none" xmlns="http://www.w3.org/2000/svg">
<path d="M22.8281 24.0312C22.8281 23.1458 22.5156 22.4688 21.8906 22C21.2656 21.5208 20.1406 21.0208 18.5156 20.5C16.8906 19.9688 15.6042 19.4479 14.6562 18.9375C12.0729 17.5417 10.7812 15.6615 10.7812 13.2969C10.7812 12.0677 11.125 10.974 11.8125 10.0156C12.5104 9.04688 13.5052 8.29167 14.7969 7.75C16.099 7.20833 17.5573 6.9375 19.1719 6.9375C20.7969 6.9375 22.2448 7.23438 23.5156 7.82812C24.7865 8.41146 25.7708 9.23958 26.4688 10.3125C27.1771 11.3854 27.5312 12.6042 27.5312 13.9688H22.8438C22.8438 12.9271 22.5156 12.1198 21.8594 11.5469C21.2031 10.9635 20.2812 10.6719 19.0938 10.6719C17.9479 10.6719 17.0573 10.9167 16.4219 11.4062C15.7865 11.8854 15.4688 12.5208 15.4688 13.3125C15.4688 14.0521 15.8385 14.6719 16.5781 15.1719C17.3281 15.6719 18.4271 16.1406 19.875 16.5781C22.5417 17.3802 24.4844 18.375 25.7031 19.5625C26.9219 20.75 27.5312 22.2292 27.5312 24C27.5312 25.9688 26.7865 27.5156 25.2969 28.6406C23.8073 29.7552 21.8021 30.3125 19.2812 30.3125C17.5312 30.3125 15.9375 29.9948 14.5 29.3594C13.0625 28.7135 11.9635 27.8333 11.2031 26.7188C10.4531 25.6042 10.0781 24.3125 10.0781 22.8438H14.7812C14.7812 25.3542 16.2812 26.6094 19.2812 26.6094C20.3958 26.6094 21.2656 26.3854 21.8906 25.9375C22.5156 25.4792 22.8281 24.8438 22.8281 24.0312ZM49.2344 30H44.5469V20.25H35.4062V30H30.7188V7.25H35.4062V16.4688H44.5469V7.25H49.2344V30ZM72.0312 19.1406C72.0312 21.3802 71.6354 23.3438 70.8438 25.0312C70.0521 26.7188 68.9167 28.0208 67.4375 28.9375C65.9688 29.8542 64.2812 30.3125 62.375 30.3125C60.4896 30.3125 58.8073 29.8594 57.3281 28.9531C55.849 28.0469 54.7031 26.7552 53.8906 25.0781C53.0781 23.3906 52.6667 21.4531 52.6562 19.2656V18.1406C52.6562 15.901 53.0573 13.9323 53.8594 12.2344C54.6719 10.526 55.8125 9.21875 57.2812 8.3125C58.7604 7.39583 60.4479 6.9375 62.3438 6.9375C64.2396 6.9375 65.9219 7.39583 67.3906 8.3125C68.8698 9.21875 70.0104 10.526 70.8125 12.2344C71.625 13.9323 72.0312 15.8958 72.0312 18.125V19.1406ZM67.2812 18.1094C67.2812 15.724 66.8542 13.9115 66 12.6719C65.1458 11.4323 63.9271 10.8125 62.3438 10.8125C60.7708 10.8125 59.5573 11.4271 58.7031 12.6562C57.849 13.875 57.4167 15.6667 57.4062 18.0312V19.1406C57.4062 21.4635 57.8333 23.2656 58.6875 24.5469C59.5417 25.8281 60.7708 26.4688 62.375 26.4688C63.9479 26.4688 65.1562 25.8542 66 24.625C66.8438 23.3854 67.2708 21.5833 67.2812 19.2188V18.1094ZM89.125 20.1406H80.125V26.2344H90.6875V30H75.4375V7.25H90.6562V11.0469H80.125V16.4688H89.125V20.1406ZM105.234 24.0312C105.234 23.1458 104.922 22.4688 104.297 22C103.672 21.5208 102.547 21.0208 100.922 20.5C99.2969 19.9688 98.0104 19.4479 97.0625 18.9375C94.4792 17.5417 93.1875 15.6615 93.1875 13.2969C93.1875 12.0677 93.5312 10.974 94.2188 10.0156C94.9167 9.04688 95.9115 8.29167 97.2031 7.75C98.5052 7.20833 99.9635 6.9375 101.578 6.9375C103.203 6.9375 104.651 7.23438 105.922 7.82812C107.193 8.41146 108.177 9.23958 108.875 10.3125C109.583 11.3854 109.938 12.6042 109.938 13.9688H105.25C105.25 12.9271 104.922 12.1198 104.266 11.5469C103.609 10.9635 102.688 10.6719 101.5 10.6719C100.354 10.6719 99.4635 10.9167 98.8281 11.4062C98.1927 11.8854 97.875 12.5208 97.875 13.3125C97.875 14.0521 98.2448 14.6719 98.9844 15.1719C99.7344 15.6719 100.833 16.1406 102.281 16.5781C104.948 17.3802 106.891 18.375 108.109 19.5625C109.328 20.75 109.938 22.2292 109.938 24C109.938 25.9688 109.193 27.5156 107.703 28.6406C106.214 29.7552 104.208 30.3125 101.688 30.3125C99.9375 30.3125 98.3438 29.9948 96.9062 29.3594C95.4688 28.7135 94.3698 27.8333 93.6094 26.7188C92.8594 25.6042 92.4844 24.3125 92.4844 22.8438H97.1875C97.1875 25.3542 98.6875 26.6094 101.688 26.6094C102.802 26.6094 103.672 26.3854 104.297 25.9375C104.922 25.4792 105.234 24.8438 105.234 24.0312ZM130.25 11.0469H123.281V30H118.594V11.0469H111.719V7.25H130.25V11.0469ZM151.188 19.1406C151.188 21.3802 150.792 23.3438 150 25.0312C149.208 26.7188 148.073 28.0208 146.594 28.9375C145.125 29.8542 143.438 30.3125 141.531 30.3125C139.646 30.3125 137.964 29.8594 136.484 28.9531C135.005 28.0469 133.859 26.7552 133.047 25.0781C132.234 23.3906 131.823 21.4531 131.812 19.2656V18.1406C131.812 15.901 132.214 13.9323 133.016 12.2344C133.828 10.526 134.969 9.21875 136.438 8.3125C137.917 7.39583 139.604 6.9375 141.5 6.9375C143.396 6.9375 145.078 7.39583 146.547 8.3125C148.026 9.21875 149.167 10.526 149.969 12.2344C150.781 13.9323 151.188 15.8958 151.188 18.125V19.1406ZM146.438 18.1094C146.438 15.724 146.01 13.9115 145.156 12.6719C144.302 11.4323 143.083 10.8125 141.5 10.8125C139.927 10.8125 138.714 11.4271 137.859 12.6562C137.005 13.875 136.573 15.6667 136.562 18.0312V19.1406C136.562 21.4635 136.99 23.2656 137.844 24.5469C138.698 25.8281 139.927 26.4688 141.531 26.4688C143.104 26.4688 144.312 25.8542 145.156 24.625C146 23.3854 146.427 21.5833 146.438 19.2188V18.1094ZM163.016 21.6719H159.281V30H154.594V7.25H163.047C165.734 7.25 167.807 7.84896 169.266 9.04688C170.724 10.2448 171.453 11.9375 171.453 14.125C171.453 15.6771 171.115 16.974 170.438 18.0156C169.771 19.0469 168.755 19.8698 167.391 20.4844L172.312 29.7812V30H167.281L163.016 21.6719ZM159.281 17.875H163.062C164.24 17.875 165.151 17.5781 165.797 16.9844C166.443 16.3802 166.766 15.5521 166.766 14.5C166.766 13.4271 166.458 12.5833 165.844 11.9688C165.24 11.3542 164.307 11.0469 163.047 11.0469H159.281V17.875ZM188.719 20.1406H179.719V26.2344H190.281V30H175.031V7.25H190.25V11.0469H179.719V16.4688H188.719V20.1406Z" fill="white"/>
<path d="M223.451 28.9504C220.122 28.9504 217.379 28.9094 215.675 28.8064C202.595 28.0194 202.374 25.8434 202.301 25.1284C202.283 24.9614 202.254 24.7574 202.221 24.5254C202.043 23.2824 201.774 21.4034 202.347 19.7494L202.352 19.7514C202.888 18.3224 205.941 12.4984 220.055 12.4984C221.686 12.4434 234.478 6.5274 238.682 4.5844C240.78 3.6134 241.246 3.40042 241.414 3.34542L241.551 3.2954C242.038 3.1114 243.053 2.7304 244.045 3.3034C244.849 3.7664 245.356 4.68941 245.597 6.12441C246.193 9.69141 249.187 12.1824 252.879 12.1824C252.882 12.1824 252.884 12.1824 252.887 12.1824C256.451 12.1804 259.183 8.07342 259.21 8.03142C259.329 7.86042 259.894 7.1234 260.795 7.2044C261.25 7.2414 261.894 7.50142 262.381 8.52642C263.379 10.6194 264.829 19.7594 264.521 21.9424C264.261 28.0324 263.029 28.1734 262.436 28.2424C262.398 28.2474 262.361 28.2494 262.323 28.2494C261.976 28.2494 260.338 28.2904 257.861 28.3534C249.891 28.5494 233.828 28.9504 223.451 28.9504ZM204.271 24.7654C204.798 25.2184 207.66 26.3214 215.794 26.8104C222.725 27.2274 247.31 26.6144 257.809 26.3514C259.765 26.3024 261.204 26.2674 261.907 26.2534C262.174 25.5684 262.447 23.6454 262.524 21.8024C262.525 21.7584 262.53 21.7154 262.538 21.6734C262.798 20.1694 261.535 11.6204 260.625 9.49642C259.773 10.6454 256.842 14.1794 252.888 14.1814C252.885 14.1814 252.881 14.1814 252.878 14.1814C248.189 14.1814 244.384 11.0044 243.624 6.45342C243.433 5.31042 243.109 5.07042 243.046 5.03442C242.872 4.93342 242.485 5.0794 242.254 5.1664C242.172 5.1974 242.098 5.22541 242.035 5.24541C241.893 5.30141 240.794 5.8104 239.52 6.3984C226.916 12.2264 221.458 14.4974 220.054 14.4974C206.083 14.4974 204.208 20.4744 204.194 20.5354L204.193 20.5344C203.838 21.7144 204.054 23.2274 204.199 24.2414C204.228 24.4344 204.252 24.6104 204.271 24.7654Z" fill="white"/>
<path d="M217.328 24.5314C216.991 24.5264 216.694 24.3755 216.47 24.0955C215.165 22.4635 216.549 15.4565 216.839 14.0695L217.818 14.2744C217.136 17.5344 216.509 22.5435 217.251 23.4705C217.299 23.5305 217.323 23.5314 217.343 23.5314L217.328 24.5314Z" fill="white"/>
<path d="M218.802 17.1954C218.532 17.1954 218.247 17.1944 217.946 17.1934L216.876 17.1914V16.1914L217.949 16.1934C222.632 16.2114 223.12 16.2114 230.191 12.6534C235.63 9.91438 244.357 6.84738 244.445 6.81738L244.775 7.76038C244.688 7.79038 236.021 10.8364 230.641 13.5454C223.814 16.9814 222.844 17.1954 218.802 17.1954Z" fill="white"/>
<path d="M253.961 21.0434C246.66 20.3714 242.696 17.7254 242.531 17.6124C241.025 16.8404 234.921 18.4244 231.642 19.2764C230.179 19.6564 229.122 19.9304 228.619 19.9854C226.708 20.2034 223.85 16.9234 223.532 16.5494L224.294 15.9014C225.364 17.1584 227.455 19.1044 228.511 18.9924C228.942 18.9454 230.077 18.6504 231.391 18.3094C236.531 16.9754 241.287 15.8534 243.041 16.7554C243.131 16.8124 247.028 19.4014 254.052 20.0474L253.961 21.0434Z" fill="white"/>
<path d="M256.069 19.1974C248.813 18.5514 243.721 15.4964 243.508 15.3664C241.99 14.6154 235.917 16.1384 232.654 16.9604C231.194 17.3274 230.139 17.5934 229.637 17.6464C227.685 17.8714 225.877 15.6104 225.801 15.5144L226.585 14.8934C227.008 15.4244 228.359 16.7674 229.532 16.6524C229.963 16.6064 231.097 16.3214 232.41 15.9914C237.52 14.7054 242.249 13.6264 243.991 14.4934C244.078 14.5444 249.145 17.5784 256.158 18.2024L256.069 19.1974Z" fill="white"/>
<path d="M252.004 23.8474C252 19.0174 262.432 14.7224 262.876 14.5424L263.253 15.4684C260.401 16.6284 253.001 20.3944 253.004 23.8474H252.004Z" fill="white"/>
<path d="M229.323 24.9474C204.375 24.9474 202.886 20.6835 202.798 20.1595L203.776 19.9554C203.792 20.0024 205.716 24.6634 236.131 23.8514C260.304 23.2054 263.31 22.7174 263.655 22.5834L263.736 22.7914L263.766 22.4194C264.387 22.5014 264.415 22.9014 264.409 23.0214C264.377 23.6464 264.354 24.0974 236.158 24.8514C233.704 24.9174 231.428 24.9474 229.323 24.9474Z" fill="white"/>
<path d="M238.445 5.77455L237.56 6.24115L239.21 9.36786L240.094 8.90126L238.445 5.77455Z" fill="white"/>
<path d="M234.689 7.34669L233.804 7.81329L235.454 10.94L236.338 10.4734L234.689 7.34669Z" fill="white"/>
<path d="M231.208 8.89979L230.323 9.36639L231.973 12.4931L232.857 12.0265L231.208 8.89979Z" fill="white"/>
<path d="M227.605 10.4631L226.721 10.9297L228.37 14.0565L229.255 13.5899L227.605 10.4631Z" fill="white"/>
<path d="M223.835 12.0251L222.95 12.4917L224.6 15.6184L225.484 15.1518L223.835 12.0251Z" fill="white"/>
<path d="M220.417 12.8947L219.533 13.3615L221.182 16.4869L222.067 16.0201L220.417 12.8947Z" fill="white"/>
</svg>
